$MeshFormat
2.2 0 8
$EndMeshFormat
$PhysicalNames
5
1 1 "bottom"
1 2 "right"
1 3 "top"
1 4 "left"
2 10 "domain"
$EndPhysicalNames
$Nodes
211
1 0 0 0
2 4 0.2 0
3 3.5 2.2 0
4 -0.3 1.8 0
5 0.2222222222217718 0.01111111111108859 0
6 0.4444444444436346 0.02222222222218173 0
7 0.6666666666652857 0.03333333333326429 0
8 0.8888888888868596 0.04444444444434298 0
9 1.111111111108434 0.05555555555542169 0
10 1.333333333330008 0.06666666666650038 0
11 1.555555555551581 0.07777777777757908 0
12 1.777777777773155 0.08888888888865777 0
13 1.999999999994772 0.09999999999973863 0
14 2.222222222217538 0.1111111111108769 0
15 2.444444444440347 0.1222222222220173 0
16 2.666666666663155 0.1333333333331577 0
17 2.888888888885962 0.1444444444442981 0
18 3.111111111108769 0.1555555555554385 0
19 3.333333333331577 0.1666666666665789 0
20 3.555555555554384 0.1777777777777192 0
21 3.777777777777192 0.1888888888888596 0
22 3.950000000000073 0.3999999999997094 0
23 3.900000000000179 0.5999999999992822 0
24 3.850000000000319 0.7999999999987242 0
25 3.800000000000459 0.9999999999981657 0
26 3.750000000000588 1.199999999997648 0
27 3.700000000000466 1.399999999998135 0
28 3.650000000000345 1.599999999998621 0
29 3.600000000000223 1.799999999999108 0
30 3.550000000000101 1.999999999999595 0
31 3.262500000000406 2.175000000000043 0
32 3.025000000000804 2.150000000000085 0
33 2.787500000001381 2.125000000000146 0
34 2.550000000002122 2.100000000000223 0
35 2.312500000002664 2.07500000000028 0
36 2.075000000003386 2.050000000000356 0
37 1.837500000004013 2.025000000000423 0
38 1.600000000004602 2.000000000000485 0
39 1.362500000003986 1.97500000000042 0
40 1.125000000003336 1.950000000000351 0
41 0.8875000000027677 1.925000000000291 0
42 0.65000000000237 1.900000000000249 0
43 0.4125000000019678 1.875000000000207 0
44 0.1750000000014027 1.850000000000148 0
45 -0.06249999999925793 1.825000000000078 0
46 -0.2625000000000472 1.575000000000283 0
47 -0.2250000000001317 1.35000000000079 0
48 -0.1875000000002434 1.125000000001461 0
49 -0.1500000000003797 0.9000000000022784 0
50 -0.1125000000002856 0.6750000000017138 0
51 -0.075000000000188 0.4500000000011282 0
52 -0.03750000000009762 0.2250000000005858 0
53 2.401408095632918 0.6195228767092041 0
54 1.607207392461415 0.4689588660506068 0
55 3.416418769719711 0.9576077024380327 0
56 0.9344861167313481 1.571874626754449 0
57 1.700689951829104 1.593940335213428 0
58 0.7509411901221258 0.4118737788744534 0
59 2.730010483810068 1.672275470680813 0
60 0.3784065027985381 1.098153238540487 0
61 3.120278236667629 0.5303228184765444 0
62 2.228337037904803 1.535417441723036 0
63 2.540861651787122 1.134550235066069 0
64 2.068710985589911 1.235256059822201 0
65 1.760527172272984 1.230969646059856 0
66 1.865069281722527 0.8872924914544278 0
67 1.258724889936097 1.583628110466458 0
68 1.339619054383965 1.222322721385946 0
69 0.8335475917124641 1.2618499158897 0
70 2.844538597484884 0.5067605140573156 0
71 0.2886007630517702 0.6817511458236097 0
72 1.174000759251955 0.4401463633333029 0
73 3.303612382866687 1.34857461416875 0
74 3.049723934667177 0.8906338634507236 0
75 2.720377729293417 0.7769573059398492 0
76 0.5435581033398678 1.527258634560247 0
77 2.910156818014563 1.26724191389566 0
78 2.026409108227334 0.5163284990549106 0
79 1.45325141629652 0.8474858593569871 0
80 1.010998114738963 0.8205272691922209 0
81 0.3460739572182448 0.4019172311897704 0
82 3.16903911766888 1.74662227949227 0
83 3.498466071799362 0.5686204902056549 0
84 0.5894291006372964 0.7607452888948752 0
85 0.2248413070385165 1.458426020690902 0
86 2.216809335011145 0.9801153432564024 0
87 3.528857880431961 0.3733082267547028 0
88 3.698015788848867 0.5848151230798025 0
89 3.738657309413267 0.3867961294780551 0
90 1.527064985133233 0.6588060931869261 0
91 1.820173303588917 0.4890765633690682 0
92 1.939952019098303 0.7070054307083812 0
93 1.665343742386446 0.8637423994072039 0
94 1.738117983711547 0.6792028037703409 0
95 1.093487661599241 0.6288385496362865 0
96 1.391008059980458 0.4541609646072453 0
97 1.233477594504334 0.8358839347878371 0
98 1.311041297350802 0.6441021408642078 0
99 3.228985156330109 0.9277747215877663 0
100 3.094928780119521 0.7094452513947318 0
101 3.30371344865629 0.5495798210046691 0
102 3.46086211441064 0.7624401800053857 0
103 3.272368857648759 0.737825912232657 0
104 2.986167158394252 1.075075372332039 0
105 2.718831902747912 1.207135358436791 0
106 2.636635454596393 0.9525646698526612 0
107 2.878949447128352 0.8406585982512792 0
108 2.806056427346198 1.019011672305346 0
109 3.105204224729451 1.312492391527885 0
110 3.237630252116375 1.546032391179463 0
111 2.950904244505351 1.712989008126272 0
112 2.821288703048257 1.464790964243658 0
113 3.029384274358617 1.509734509691546 0
114 1.199345564828533 1.764995664664545 0
115 1.474389044387991 1.591089275333448 0
116 1.655980028864213 1.793677152853626 0
117 1.422646013417183 1.781332612056629 0
118 1.065500278641817 1.577138474974086 0
119 0.902712426175762 1.459833176967006 0
120 1.11295869965621 1.23104062699728 0
121 1.301373046106483 1.405097942184532 0
122 1.09355302114091 1.41471329009143 0
123 1.942893416004601 1.235818904573506 0
124 2.122472434409145 1.337581897771145 0
125 1.935293731260004 1.583251395458884 0
126 1.729550521678348 1.406832825975111 0
127 1.936236678109713 1.393830092152805 0
128 2.638198496512054 1.88422696706055 0
129 2.150160499364178 1.813596430011178 0
130 2.498397442625153 1.617481514921435 0
131 2.398989974560614 1.845068009405524 0
132 2.221448417748764 0.5584222164806401 0
133 2.305339100785131 0.8071411691945456 0
134 2.048348032197093 0.9251074042518018 0
135 2.128714167773241 0.7494891774634026 0
136 3.122520148689432 0.3456107941577076 0
137 3.322036632300462 0.3587477900771394 0
138 2.418719968711254 1.31808704337247 0
139 2.611077322582629 1.402949353699525 0
140 0.8380375856921916 1.681505302359195 0
141 0.995357374084018 1.742067538346813 0
142 1.897669700229067 1.800782127342734 0
143 2.956076237898686 0.5134253779391903 0
144 2.78100056961136 0.3893405459601185 0
145 2.93683699077006 0.342230058253865 0
146 1.555686095694525 1.225292568991046 0
147 1.515393582699617 1.406830024170186 0
148 0.4866323771306715 0.9271677474499049 0
149 0.1547313439047376 1.017827042884845 0
150 0.1507499523057599 0.757306288964854 0
151 0.4088176193640649 0.7200705198364562 0
152 0.2910316548924407 0.8578632923785614 0
153 1.691568767825951 0.2795145635304874 0
154 1.25396586784385 0.2531870031027033 0
155 1.472963402410271 0.2659455953142417 0
156 0.9601274078275659 0.4261346307776825 0
157 0.8206927661087146 0.2292699812793801 0
158 1.036428890468228 0.2409325856824182 0
159 0.7945862130345452 0.7947087123314298 0
160 0.6768589632835756 0.5883864714417664 0
161 0.8809453410867647 0.6097647164972524 0
162 3.501334944386347 1.375808659523223 0
163 3.362606599579393 1.151348983384154 0
164 3.606911491760253 0.9797947731710015 0
165 3.555499039916409 1.177128624462018 0
166 1.803664944874535 1.061367073197884 0
167 1.390071311138466 1.036840566030831 0
168 1.604090319978752 1.046187962407157 0
169 2.511238814920835 0.4163634106077176 0
170 2.121449961286292 0.317304335909598 0
171 2.326474975126462 0.3502107293637938 0
172 2.131377568299411 1.132207080977382 0
173 2.374956326378556 1.053108763318389 0
174 2.263647008167129 1.214702309397242 0
175 2.792357799514821 0.616704143492107 0
176 2.93230946636664 0.6725916683229571 0
177 2.563822039254592 0.6983729285534093 0
178 2.661137518907923 0.5224567951642379 0
179 0.3936908991483803 0.2159082041366429 0
180 0.1391383058306268 0.4197986076952024 0
181 0.1790900461978288 0.2181684854196001 0
182 0.5803700674777729 1.651859177151873 0
183 0.6411761696041658 1.429281578409595 0
184 0.7399546755378117 1.558933407783219 0
185 0.006529869355035386 1.406642109063313 0
186 0.1915324582984432 1.65060909132334 0
187 -0.0317254988623891 1.614428820702498 0
188 3.0971490102559 1.947603224978977 0
189 2.86889233484428 1.917752922971748 0
190 3.384390211488716 1.774109649793104 0
191 3.323633191631961 1.974290107844583 0
192 0.548196980597398 0.4007856555057881 0
193 0.3090051852983876 0.5680220034881397 0
194 0.4881469720450755 0.568010967979381 0
195 3.171246758838546 1.11728231181411 0
196 1.908371420865724 0.2961271015563068 0
197 0.4163797421367118 1.500889738171814 0
198 0.3992540641195513 1.674770204117821 0
199 0.9278996884534774 1.019594060349059 0
200 1.163177518219277 1.033085724940577 0
201 0.1143772865782706 0.6063303092118503 0
202 2.470824482575249 0.8779815003937242 0
203 0.6072412367897637 0.2199694764644271 0
204 3.654084428983523 0.7820339771170446 0
205 3.443589960929063 1.574253053070259 0
206 1.98095906040674 1.086460324706161 0
207 0.2885263230726516 1.274724929000273 0
208 0.59443631933931 1.168456375911582 0
209 0.4879781977706475 1.340837659294619 0
210 0.06199649197724643 1.204531859593567 0
211 0.7009775668893657 0.9809606280862517 0
$EndNodes
$Elements
236
1 1 2 1 1 1 5
2 1 2 1 1 5 6
3 1 2 1 1 6 7
4 1 2 1 1 7 8
5 1 2 1 1 8 9
6 1 2 1 1 9 10
7 1 2 1 1 10 11
8 1 2 1 1 11 12
9 1 2 1 1 12 13
10 1 2 1 1 13 14
11 1 2 1 1 14 15
12 1 2 1 1 15 16
13 1 2 1 1 16 17
14 1 2 1 1 17 18
15 1 2 1 1 18 19
16 1 2 1 1 19 20
17 1 2 1 1 20 21
18 1 2 1 1 21 2
19 1 2 2 2 2 22
20 1 2 2 2 22 23
21 1 2 2 2 23 24
22 1 2 2 2 24 25
23 1 2 2 2 25 26
24 1 2 2 2 26 27
25 1 2 2 2 27 28
26 1 2 2 2 28 29
27 1 2 2 2 29 30
28 1 2 2 2 30 3
29 1 2 3 3 3 31
30 1 2 3 3 31 32
31 1 2 3 3 32 33
32 1 2 3 3 33 34
33 1 2 3 3 34 35
34 1 2 3 3 35 36
35 1 2 3 3 36 37
36 1 2 3 3 37 38
37 1 2 3 3 38 39
38 1 2 3 3 39 40
39 1 2 3 3 40 41
40 1 2 3 3 41 42
41 1 2 3 3 42 43
42 1 2 3 3 43 44
43 1 2 3 3 44 45
44 1 2 3 3 45 4
45 1 2 4 4 4 46
46 1 2 4 4 46 47
47 1 2 4 4 47 48
48 1 2 4 4 48 49
49 1 2 4 4 49 50
50 1 2 4 4 50 51
51 1 2 4 4 51 52
52 1 2 4 4 52 1
53 3 2 10 1 83 87 89 88
54 3 2 10 1 20 21 89 87
55 3 2 10 1 2 22 89 21
56 3 2 10 1 23 88 89 22
57 3 2 10 1 79 90 94 93
58 3 2 10 1 54 91 94 90
59 3 2 10 1 78 92 94 91
60 3 2 10 1 66 93 94 92
61 3 2 10 1 80 95 98 97
62 3 2 10 1 72 96 98 95
63 3 2 10 1 54 90 98 96
64 3 2 10 1 79 97 98 90
65 3 2 10 1 55 99 103 102
66 3 2 10 1 74 100 103 99
67 3 2 10 1 61 101 103 100
68 3 2 10 1 83 102 103 101
69 3 2 10 1 74 104 108 107
70 3 2 10 1 77 105 108 104
71 3 2 10 1 63 106 108 105
72 3 2 10 1 75 107 108 106
73 3 2 10 1 77 109 113 112
74 3 2 10 1 73 110 113 109
75 3 2 10 1 82 111 113 110
76 3 2 10 1 59 112 113 111
77 3 2 10 1 40 114 117 39
78 3 2 10 1 67 115 117 114
79 3 2 10 1 57 116 117 115
80 3 2 10 1 38 39 117 116
81 3 2 10 1 67 118 122 121
82 3 2 10 1 56 119 122 118
83 3 2 10 1 69 120 122 119
84 3 2 10 1 68 121 122 120
85 3 2 10 1 65 123 127 126
86 3 2 10 1 64 124 127 123
87 3 2 10 1 62 125 127 124
88 3 2 10 1 57 126 127 125
89 3 2 10 1 59 128 131 130
90 3 2 10 1 34 35 131 128
91 3 2 10 1 36 129 131 35
92 3 2 10 1 62 130 131 129
93 3 2 10 1 78 132 135 92
94 3 2 10 1 53 133 135 132
95 3 2 10 1 86 134 135 133
96 3 2 10 1 66 92 135 134
97 3 2 10 1 83 101 137 87
98 3 2 10 1 61 136 137 101
99 3 2 10 1 18 19 137 136
100 3 2 10 1 20 87 137 19
101 3 2 10 1 62 138 139 130
102 3 2 10 1 63 105 139 138
103 3 2 10 1 77 112 139 105
104 3 2 10 1 59 130 139 112
105 3 2 10 1 67 114 141 118
106 3 2 10 1 40 41 141 114
107 3 2 10 1 42 140 141 41
108 3 2 10 1 56 118 141 140
109 3 2 10 1 62 129 142 125
110 3 2 10 1 36 37 142 129
111 3 2 10 1 38 116 142 37
112 3 2 10 1 57 125 142 116
113 3 2 10 1 61 143 145 136
114 3 2 10 1 70 144 145 143
115 3 2 10 1 16 17 145 144
116 3 2 10 1 18 136 145 17
117 3 2 10 1 68 146 147 121
118 3 2 10 1 65 126 147 146
119 3 2 10 1 57 115 147 126
120 3 2 10 1 67 121 147 115
121 3 2 10 1 84 148 152 151
122 3 2 10 1 60 149 152 148
123 3 2 10 1 49 150 152 149
124 3 2 10 1 71 151 152 150
125 3 2 10 1 12 153 155 11
126 3 2 10 1 54 96 155 153
127 3 2 10 1 72 154 155 96
128 3 2 10 1 10 11 155 154
129 3 2 10 1 10 154 158 9
130 3 2 10 1 72 156 158 154
131 3 2 10 1 58 157 158 156
132 3 2 10 1 8 9 158 157
133 3 2 10 1 72 95 161 156
134 3 2 10 1 80 159 161 95
135 3 2 10 1 84 160 161 159
136 3 2 10 1 58 156 161 160
137 3 2 10 1 25 26 165 164
138 3 2 10 1 27 162 165 26
139 3 2 10 1 73 163 165 162
140 3 2 10 1 55 164 165 163
141 3 2 10 1 66 166 168 93
142 3 2 10 1 65 146 168 166
143 3 2 10 1 68 167 168 146
144 3 2 10 1 79 93 168 167
145 3 2 10 1 16 169 171 15
146 3 2 10 1 53 132 171 169
147 3 2 10 1 78 170 171 132
148 3 2 10 1 14 15 171 170
149 3 2 10 1 62 124 174 138
150 3 2 10 1 64 172 174 124
151 3 2 10 1 86 173 174 172
152 3 2 10 1 63 138 174 173
153 3 2 10 1 61 100 176 143
154 3 2 10 1 74 107 176 100
155 3 2 10 1 75 175 176 107
156 3 2 10 1 70 143 176 175
157 3 2 10 1 16 144 178 169
158 3 2 10 1 70 175 178 144
159 3 2 10 1 75 177 178 175
160 3 2 10 1 53 169 178 177
161 3 2 10 1 51 52 181 180
162 3 2 10 1 1 5 181 52
163 3 2 10 1 6 179 181 5
164 3 2 10 1 81 180 181 179
165 3 2 10 1 69 119 184 183
166 3 2 10 1 56 140 184 119
167 3 2 10 1 42 182 184 140
168 3 2 10 1 76 183 184 182
169 3 2 10 1 44 45 187 186
170 3 2 10 1 4 46 187 45
171 3 2 10 1 47 185 187 46
172 3 2 10 1 85 186 187 185
173 3 2 10 1 34 128 189 33
174 3 2 10 1 59 111 189 128
175 3 2 10 1 82 188 189 111
176 3 2 10 1 32 33 189 188
177 3 2 10 1 32 188 191 31
178 3 2 10 1 82 190 191 188
179 3 2 10 1 29 30 191 190
180 3 2 10 1 3 31 191 30
181 3 2 10 1 81 192 194 193
182 3 2 10 1 58 160 194 192
183 3 2 10 1 84 151 194 160
184 3 2 10 1 71 193 194 151
185 3 2 10 1 73 109 195 163
186 3 2 10 1 77 104 195 109
187 3 2 10 1 74 99 195 104
188 3 2 10 1 55 163 195 99
189 3 2 10 1 54 153 196 91
190 3 2 10 1 12 13 196 153
191 3 2 10 1 14 170 196 13
192 3 2 10 1 78 91 196 170
193 3 2 10 1 42 43 198 182
194 3 2 10 1 44 186 198 43
195 3 2 10 1 85 197 198 186
196 3 2 10 1 76 182 198 197
197 3 2 10 1 79 167 200 97
198 3 2 10 1 68 120 200 167
199 3 2 10 1 69 199 200 120
200 3 2 10 1 80 97 200 199
201 3 2 10 1 49 50 201 150
202 3 2 10 1 51 180 201 50
203 3 2 10 1 81 193 201 180
204 3 2 10 1 71 150 201 193
205 3 2 10 1 63 173 202 106
206 3 2 10 1 86 133 202 173
207 3 2 10 1 53 177 202 133
208 3 2 10 1 75 106 202 177
209 3 2 10 1 8 157 203 7
210 3 2 10 1 58 192 203 157
211 3 2 10 1 81 179 203 192
212 3 2 10 1 6 7 203 179
213 3 2 10 1 55 102 204 164
214 3 2 10 1 83 88 204 102
215 3 2 10 1 23 24 204 88
216 3 2 10 1 25 164 204 24
217 3 2 10 1 27 28 205 162
218 3 2 10 1 29 190 205 28
219 3 2 10 1 82 110 205 190
220 3 2 10 1 73 162 205 110
221 3 2 10 1 65 166 206 123
222 3 2 10 1 66 134 206 166
223 3 2 10 1 86 172 206 134
224 3 2 10 1 64 123 206 172
225 3 2 10 1 69 183 209 208
226 3 2 10 1 76 197 209 183
227 3 2 10 1 85 207 209 197
228 3 2 10 1 60 208 209 207
229 3 2 10 1 49 149 210 48
230 3 2 10 1 60 207 210 149
231 3 2 10 1 85 185 210 207
232 3 2 10 1 47 48 210 185
233 3 2 10 1 60 148 211 208
234 3 2 10 1 84 159 211 148
235 3 2 10 1 80 199 211 159
236 3 2 10 1 69 208 211 199
$EndElements
