$MeshFormat
2.2 0 8
$EndMeshFormat
$PhysicalNames
5
1 1 "bottom"
1 2 "right"
1 3 "top"
1 4 "left"
2 5 "domain"
$EndPhysicalNames
$Nodes
36
1 0 0 0
2 2 0 0
3 2 2 0
4 0 2 0
5 0.3999999999991138 0 0
6 0.7999999999979462 0 0
7 1.19999999999789 0 0
8 1.599999999998945 0 0
9 2 0.3999999999991138 0
10 2 0.7999999999979462 0
11 2 1.19999999999789 0
12 2 1.599999999998945 0
13 1.6 2 0
14 1.200000000002775 2 0
15 0.80000000000333 2 0
16 0.400000000001665 2 0
17 0 1.6 0
18 0 1.200000000002775 0
19 0 0.80000000000333 0
20 0 0.400000000001665 0
21 0.399999999999624 0.4000000000011548 0
22 0.4000000000001344 0.8000000000022535 0
23 0.4000000000006445 1.200000000001798 0
24 0.4000000000011548 1.599999999999789 0
25 0.7999999999990229 0.4000000000006445 0
26 0.8000000000000997 0.8000000000011764 0
27 0.8000000000011765 1.200000000000821 0
28 0.8000000000022532 1.599999999999578 0
29 1.199999999998867 0.4000000000001342 0
30 1.199999999999844 0.8000000000000996 0
31 1.200000000000821 1.199999999999844 0
32 1.200000000001798 1.599999999999367 0
33 1.599999999999156 0.399999999999624 0
34 1.599999999999367 0.7999999999990232 0
35 1.599999999999578 1.199999999998867 0
36 1.599999999999789 1.599999999999156 0
$EndNodes
$Elements
45
1 1 2 1 1 1 5
2 1 2 1 1 5 6
3 1 2 1 1 6 7
4 1 2 1 1 7 8
5 1 2 1 1 8 2
6 1 2 2 2 2 9
7 1 2 2 2 9 10
8 1 2 2 2 10 11
9 1 2 2 2 11 12
10 1 2 2 2 12 3
11 1 2 3 3 3 13
12 1 2 3 3 13 14
13 1 2 3 3 14 15
14 1 2 3 3 15 16
15 1 2 3 3 16 4
16 1 2 4 4 4 17
17 1 2 4 4 17 18
18 1 2 4 4 18 19
19 1 2 4 4 19 20
20 1 2 4 4 20 1
21 3 2 5 1 1 5 21 20
22 3 2 5 1 20 21 22 19
23 3 2 5 1 19 22 23 18
24 3 2 5 1 18 23 24 17
25 3 2 5 1 17 24 16 4
26 3 2 5 1 5 6 25 21
27 3 2 5 1 21 25 26 22
28 3 2 5 1 22 26 27 23
29 3 2 5 1 23 27 28 24
30 3 2 5 1 24 28 15 16
31 3 2 5 1 6 7 29 25
32 3 2 5 1 25 29 30 26
33 3 2 5 1 26 30 31 27
34 3 2 5 1 27 31 32 28
35 3 2 5 1 28 32 14 15
36 3 2 5 1 7 8 33 29
37 3 2 5 1 29 33 34 30
38 3 2 5 1 30 34 35 31
39 3 2 5 1 31 35 36 32
40 3 2 5 1 32 36 13 14
41 3 2 5 1 8 2 9 33
42 3 2 5 1 33 9 10 34
43 3 2 5 1 34 10 11 35
44 3 2 5 1 35 11 12 36
45 3 2 5 1 36 12 3 13
$EndElements
